HIERARCHY
ROOT Hips
{
	OFFSET 0.00 0.00 0.00
	CHANNELS 6 Xposition Yposition Zposition Xrotation Yrotation Zrotation
	JOINT RightUpLeg
	{
		OFFSET -3.34548 0.00000 0.00000
		CHANNELS 3 Xrotation Yrotation Zrotation
		JOINT RightLeg
		{
			OFFSET 0.00000 -19.11473 0.00000
			CHANNELS 3 Xrotation Yrotation Zrotation
			JOINT RightFoot
			{
				OFFSET 0.00000 -16.04560 0.00000
				CHANNELS 3 Xrotation Yrotation Zrotation
				JOINT RightToeBase
				{
					OFFSET 0.00000 -1.43467 5.35428
					CHANNELS 3 Xrotation Yrotation Zrotation
					End Site
					{
						OFFSET 0.00000 0.00000 2.95275
					}
				}
			}
		}
	}
	JOINT LeftUpLeg
	{
		OFFSET 3.34548 0.00000 0.00000
		CHANNELS 3 Xrotation Yrotation Zrotation
		JOINT LeftLeg
		{
			OFFSET 0.00000 -19.11473 0.00000
			CHANNELS 3 Xrotation Yrotation Zrotation
			JOINT LeftFoot
			{
				OFFSET 0.00000 -16.04560 0.00000
				CHANNELS 3 Xrotation Yrotation Zrotation
				JOINT LeftToeBase
				{
					OFFSET 0.00000 -1.43467 5.35428
					CHANNELS 3 Xrotation Yrotation Zrotation
					End Site
					{
						OFFSET 0.00000 0.00000 2.95275
					}
				}
			}
		}
	}
	JOINT Spine
	{
		OFFSET 0.00000 7.53995 0.00000
		CHANNELS 3 Xrotation Yrotation Zrotation
		JOINT RightShoulder
		{
			OFFSET 0.00000 9.73893 0.00000
			CHANNELS 3 Xrotation Yrotation Zrotation
			JOINT RightArm
			{
				OFFSET -7.08401 0.00000 0.00000
				CHANNELS 3 Xrotation Yrotation Zrotation
				JOINT RightForeArm
				{
					OFFSET -10.25932 0.00000 0.00000
					CHANNELS 3 Yrotation Zrotation Xrotation
					JOINT RightHand
					{
						OFFSET -9.89698 0.00000 0.00000
						CHANNELS 3 Xrotation Yrotation Zrotation
						End Site
						{
							OFFSET -3.93700 0.00000 0.00000
						}
						JOINT RightHandThumb1
						{
							OFFSET 0.00000 0.00000 0.00000
							CHANNELS 3 Xrotation Zrotation Yrotation
							End Site
							{
								OFFSET 0.00000 0.00000 3.93700
							}
						}
					}
				}
			}
		}
		JOINT LeftShoulder
		{
			OFFSET 0.00000 9.73893 0.00000
			CHANNELS 3 Xrotation Yrotation Zrotation
			JOINT LeftArm
			{
				OFFSET 7.08401 0.00000 0.00000
				CHANNELS 3 Xrotation Yrotation Zrotation
				JOINT LeftForeArm
				{
					OFFSET 10.25932 0.00000 0.00000
					CHANNELS 3 Yrotation Zrotation Xrotation
					JOINT LeftHand
					{
						OFFSET 9.89698 0.00000 0.00000
						CHANNELS 3 Xrotation Yrotation Zrotation
						End Site
						{
							OFFSET 3.93700 0.00000 0.00000
						}
						JOINT LeftHandThumb1
						{
							OFFSET 0.00000 0.00000 0.00000
							CHANNELS 3 Xrotation Zrotation Yrotation
							End Site
							{
								OFFSET 0.00000 0.00000 3.93700
							}
						}
					}
				}
			}
		}
		JOINT Head
		{
			OFFSET 0.00000 15.09381 0.00000
			CHANNELS 3 Xrotation Yrotation Zrotation
			End Site
			{
				OFFSET 0.00000 4.52755 0.00000
			}
		}
	}
}
MOTION
Frames: 22
Frame Time: 0.008333
 -0.8139 37.0309 4.1789 7.4549 2.4250 -0.6196 -7.3494 -11.0106 -2.7922 10.6470 -0.0000 0.0000 -12.1670 -15.3452 14.0160 9.1333 0.0000 -0.0000 -5.5151 10.1147 5.7933 7.2613 -0.0000 0.0000 -11.7973 15.4534 -18.6201 13.2594 -0.0000 0.0000 -8.6556 5.8689 0.0676 1.2619 -8.2708 -23.4551 -39.5529 -10.9793 16.0681 10.6945 -0.0000 -165.0563 0.3816 2.8194 -7.7120 32.8623 0.0000 -24.3270 -16.0567 0.6253 19.1189 -26.8390 7.1420 -16.9477 -5.3927 0.0000 35.6082 5.6100 13.8338 -22.3334 33.1476 -0.0000 26.2537 -1.0813 -4.8267 -0.5779
 -0.8131 37.0302 4.1804 7.4571 2.4269 -0.6221 -7.3493 -10.9835 -2.7883 10.6521 0.0000 -0.0000 -12.1662 -15.3690 14.0271 9.1130 -0.0000 -0.0000 -5.5145 10.1184 5.7946 7.2585 0.0000 0.0000 -11.8037 15.4474 -18.6287 13.2549 0.0000 0.0000 -8.6583 5.8742 0.0567 1.2795 -8.2594 -23.4672 -39.5499 -10.9720 16.0836 10.6925 -0.0000 -165.0447 0.3753 2.7554 -7.7595 32.8623 0.0000 -24.3270 -16.0514 0.6306 19.1091 -26.9572 7.1681 -16.9353 -5.3725 0.0000 35.7746 5.5509 13.7593 -22.2255 33.1476 -0.0000 26.2537 -1.0738 -4.8642 -0.5586
 -0.8125 37.0302 4.1817 7.4589 2.4465 -0.6266 -7.3468 -10.9841 -2.7859 10.6562 0.0000 0.0000 -12.1737 -15.4044 14.0402 9.1342 -0.0000 -0.0000 -5.5152 10.0969 5.7965 7.2569 0.0000 -0.0000 -11.8037 15.4468 -18.6121 13.2626 0.0000 0.0000 -8.6482 5.8847 0.0344 1.2646 -8.2568 -23.4633 -39.5378 -10.9756 16.0859 10.7104 -0.0000 -165.0363 0.3720 2.7774 -7.6314 32.8623 0.0000 -24.3270 -16.0609 0.6221 19.0999 -26.9599 7.1373 -16.9214 -5.3470 0.0000 35.7138 5.5606 13.7723 -22.2423 33.1476 -0.0000 26.2537 -1.0857 -4.9119 -0.5272
 -0.8120 37.0302 4.1828 7.4613 2.4561 -0.6297 -7.3493 -10.9864 -2.7846 10.6605 0.0000 -0.0000 -12.1911 -15.3610 14.0555 9.1864 0.0000 0.0000 -5.5165 10.1011 5.7997 7.2522 -0.0000 -0.0000 -11.8026 15.4354 -18.6401 13.2680 -0.0000 0.0000 -8.6378 5.8933 0.0182 1.2506 -8.2472 -23.4652 -39.5381 -10.9650 16.0866 10.7054 -0.0000 -165.0590 0.3731 2.7829 -7.6389 32.8623 0.0000 -24.3270 -16.0672 0.6274 19.0994 -26.9708 7.1343 -16.9174 -5.3603 0.0000 35.7012 5.5539 13.7452 -22.2567 33.1476 -0.0000 26.2537 -1.0887 -4.9332 -0.5355
 -0.8122 37.0300 4.1841 7.4626 2.4670 -0.6345 -7.3469 -10.9789 -2.7798 10.6645 -0.0000 0.0000 -12.1710 -15.4021 14.0088 9.0708 -0.0000 0.0000 -5.5201 10.0939 5.8043 7.2591 0.0000 0.0000 -11.8045 15.4190 -18.6335 13.2366 -0.0000 -0.0000 -8.6260 5.9055 -0.0028 1.2229 -8.2425 -23.4563 -39.5182 -10.9472 16.0865 10.7115 -0.0000 -165.0877 0.3720 2.7513 -7.7027 32.8623 0.0000 -24.3270 -16.0557 0.6331 19.1017 -26.9597 7.1176 -16.9174 -5.3879 0.0000 35.6545 5.5264 13.6876 -22.2391 33.1476 -0.0000 26.2537 -1.0863 -4.9531 -0.5316
 -0.8111 37.0296 4.1851 7.4660 2.4760 -0.6372 -7.3476 -10.9766 -2.7800 10.6678 0.0000 -0.0000 -12.1825 -15.4279 14.0205 9.0929 -0.0000 0.0000 -5.5079 10.0583 5.8026 7.2348 -0.0000 -0.0000 -11.8053 15.4568 -18.6621 13.2870 -0.0000 0.0000 -8.6166 5.9173 -0.0169 1.2290 -8.2527 -23.4591 -39.5434 -10.9345 16.0916 10.7051 -0.0000 -165.1067 0.3753 2.7677 -7.7243 32.8623 0.0000 -24.3270 -16.0635 0.6327 19.1046 -26.8644 7.0953 -16.9212 -5.4218 0.0000 35.5193 5.5265 13.6998 -22.2220 33.1476 -0.0000 26.2537 -1.0898 -4.9774 -0.5370
 -0.8112 37.0293 4.1861 7.4658 2.4799 -0.6401 -7.3465 -10.9704 -2.7763 10.6715 0.0000 0.0000 -12.1806 -15.4378 14.0159 9.0896 0.0000 0.0000 -5.5176 10.0760 5.8071 7.2521 -0.0000 0.0000 -11.8153 15.4299 -18.6312 13.2446 -0.0000 -0.0000 -8.6003 5.9281 -0.0321 1.1991 -8.2405 -23.4624 -39.5558 -10.9278 16.0891 10.6973 -0.0000 -165.0928 0.3615 2.6507 -7.7696 32.8623 0.0000 -24.3270 -16.0645 0.6373 19.1070 -26.8625 7.0925 -16.9064 -5.4407 0.0000 35.5107 5.5576 13.7357 -22.2836 33.1476 -0.0000 26.2537 -1.1034 -5.0178 -0.5409
 -0.8099 37.0291 4.1871 7.4679 2.4847 -0.6415 -7.3471 -10.9715 -2.7768 10.6720 0.0000 0.0000 -12.1796 -15.4486 14.0244 9.0580 -0.0000 0.0000 -5.5064 10.0537 5.8043 7.2307 -0.0000 -0.0000 -11.8047 15.4389 -18.6321 13.2431 0.0000 -0.0000 -8.5922 5.9435 -0.0474 1.2022 -8.2441 -23.4546 -39.5584 -10.9039 16.0874 10.7094 -0.0000 -165.1487 0.3629 2.7104 -7.6283 32.8623 0.0000 -24.3270 -16.0410 0.6440 19.1093 -26.8940 7.0875 -16.8963 -5.4554 0.0000 35.4957 5.5535 13.7435 -22.2575 33.1476 -0.0000 26.2537 -1.0981 -5.0418 -0.5533
 -0.8091 37.0288 4.1878 7.4659 2.4907 -0.6436 -7.3467 -10.9946 -2.7797 10.6793 0.0000 -0.0000 -12.1817 -15.4224 14.0273 9.0722 0.0000 -0.0000 -5.5004 10.0402 5.8041 7.2264 -0.0000 0.0000 -11.8092 15.4478 -18.6276 13.2490 -0.0000 -0.0000 -8.5749 5.9599 -0.0641 1.1530 -8.2207 -23.4564 -39.4929 -10.8931 16.0803 10.7283 -0.0000 -165.1737 0.3742 2.7771 -7.6773 32.8623 0.0000 -24.3270 -16.0520 0.6347 19.1189 -26.8977 7.0907 -16.8881 -5.4733 0.0000 35.5003 5.5568 13.7563 -22.2514 33.1476 -0.0000 26.2537 -1.0856 -5.0283 -0.5811
 -0.8101 37.0283 4.1883 7.4682 2.5028 -0.6496 -7.3424 -11.0013 -2.7727 10.6728 -0.0000 0.0000 -12.1877 -15.4229 14.0406 9.0687 -0.0000 -0.0000 -5.5049 10.0198 5.8101 7.2297 0.0000 0.0000 -11.8151 15.4604 -18.6484 13.2399 -0.0000 0.0000 -8.5620 5.9733 -0.0819 1.1419 -8.2191 -23.4716 -39.4737 -10.9020 16.0993 10.7524 -0.0000 -165.1175 0.3662 2.7352 -7.6280 32.8623 0.0000 -24.3270 -16.0434 0.6274 19.1344 -26.9306 7.0988 -16.8768 -5.4936 0.0000 35.5255 5.6007 13.8481 -22.2795 33.1476 -0.0000 26.2537 -1.1081 -5.0869 -0.5498
 -0.8102 37.0281 4.1890 7.4704 2.5034 -0.6562 -7.3429 -11.0080 -2.7663 10.6734 0.0000 -0.0000 -12.1836 -15.4326 14.0334 9.0733 -0.0000 0.0000 -5.5085 10.0206 5.8162 7.2332 0.0000 0.0000 -11.8232 15.4616 -18.6436 13.2690 0.0000 0.0000 -8.5465 5.9850 -0.0978 1.1258 -8.2069 -23.4708 -39.4652 -10.8970 16.0982 10.7664 -0.0000 -165.0752 0.3641 2.6996 -7.6843 32.8623 0.0000 -24.3270 -16.0618 0.6264 19.1516 -26.9065 7.0950 -16.8679 -5.5197 0.0000 35.5440 5.5924 13.8405 -22.2603 33.1476 -0.0000 26.2537 -1.1079 -5.0901 -0.5546
 -0.8103 37.0284 4.1897 7.4743 2.5057 -0.6639 -7.3404 -11.0060 -2.7578 10.6658 0.0000 0.0000 -12.1719 -15.4241 14.0185 9.0659 0.0000 -0.0000 -5.5101 10.0138 5.8234 7.2285 -0.0000 0.0000 -11.8195 15.4608 -18.6327 13.2566 -0.0000 0.0000 -8.5369 6.0033 -0.1124 1.1009 -8.1955 -23.4641 -39.4744 -10.8856 16.0886 10.7646 -0.0000 -165.0371 0.3591 2.6664 -7.6733 32.8623 0.0000 -24.3270 -16.0670 0.6231 19.1704 -26.9116 7.0897 -16.8668 -5.5383 0.0000 35.5570 5.6029 13.8718 -22.2535 33.1476 -0.0000 26.2537 -1.1086 -5.1145 -0.5369
 -0.8094 37.0288 4.1902 7.4782 2.5069 -0.6699 -7.3421 -11.0116 -2.7550 10.6638 0.0000 -0.0000 -12.1635 -15.4251 14.0407 9.0369 0.0000 0.0000 -5.5103 9.9968 5.8275 7.2221 -0.0000 0.0000 -11.8177 15.4766 -18.6492 13.2378 -0.0000 0.0000 -8.5273 6.0142 -0.1266 1.0877 -8.1855 -23.4594 -39.4813 -10.8674 16.0862 10.7606 -0.0000 -165.0552 0.3605 2.6815 -7.6596 32.8623 0.0000 -24.3270 -16.0802 0.6227 19.1780 -26.9040 7.0879 -16.8395 -5.5780 0.0000 35.6074 5.6201 13.8753 -22.3108 33.1476 -0.0000 26.2537 -1.1198 -5.1460 -0.5024
 -0.8087 37.0283 4.1908 7.4820 2.5015 -0.6739 -7.3429 -11.0055 -2.7515 10.6602 0.0000 0.0000 -12.1645 -15.4299 14.0459 9.0876 -0.0000 -0.0000 -5.5142 10.0079 5.8308 7.2241 0.0000 0.0000 -11.8256 15.4677 -18.6381 13.2529 -0.0000 0.0000 -8.5269 6.0308 -0.1332 1.0969 -8.1727 -23.4647 -39.4927 -10.8538 16.0841 10.7656 -0.0000 -165.0596 0.3733 2.7772 -7.6579 32.8623 0.0000 -24.3270 -16.0789 0.6119 19.1855 -26.7378 7.0498 -16.8367 -5.6074 0.0000 35.4017 5.6371 13.9525 -22.2624 33.1476 -0.0000 26.2537 -1.0949 -5.1629 -0.5203
 -0.8083 37.0281 4.1910 7.4861 2.5044 -0.6801 -7.3446 -11.0245 -2.7485 10.6570 -0.0000 0.0000 -12.1613 -15.4076 14.0407 9.0580 -0.0000 -0.0000 -5.5188 10.0047 5.8362 7.2249 -0.0000 -0.0000 -11.8297 15.4648 -18.6370 13.2457 -0.0000 0.0000 -8.5156 6.0426 -0.1453 1.0906 -8.1673 -23.4628 -39.4905 -10.8427 16.0824 10.7788 -0.0000 -165.0500 0.3680 2.7261 -7.6907 32.8623 0.0000 -24.3270 -16.0887 0.6114 19.1945 -26.7478 7.0435 -16.8144 -5.6141 0.0000 35.4088 5.6354 13.9670 -22.2357 33.1476 -0.0000 26.2537 -1.1023 -5.1821 -0.5119
 -0.8078 37.0286 4.1903 7.5168 2.4934 -0.6878 -7.3739 -11.0127 -2.7409 10.6499 0.0000 -0.0000 -12.1493 -15.4211 14.0494 9.0888 -0.0000 -0.0000 -5.5470 10.0017 5.8413 7.2208 -0.0000 0.0000 -11.8286 15.4717 -18.6329 13.2251 0.0000 -0.0000 -8.5355 6.0809 -0.1554 1.0661 -8.1915 -23.4663 -39.4908 -10.8307 16.1006 10.7993 -0.0000 -165.0867 0.3935 2.8557 -7.8480 32.8623 0.0000 -24.3270 -16.1064 0.5971 19.2157 -26.8916 7.0838 -16.7987 -5.6160 0.0000 35.5390 5.6386 13.9879 -22.2177 33.1476 -0.0000 26.2537 -1.1281 -5.2090 -0.4799
 -0.8073 37.0287 4.1910 7.5221 2.4924 -0.6920 -7.3762 -11.0310 -2.7380 10.6451 0.0000 0.0000 -12.1445 -15.3930 14.0476 9.0661 -0.0000 0.0000 -5.5512 10.0053 5.8449 7.2176 -0.0000 -0.0000 -11.8362 15.4810 -18.6402 13.2640 -0.0000 0.0000 -8.5308 6.0865 -0.1696 1.0591 -8.1895 -23.4658 -39.4926 -10.8095 16.1184 10.8173 -0.0000 -165.1209 0.3774 2.7857 -7.7181 32.8623 0.0000 -24.3270 -16.1205 0.5968 19.2181 -26.9066 7.0684 -16.7594 -5.5952 0.0000 35.5509 5.6263 13.9778 -22.1882 33.1476 -0.0000 26.2537 -1.1195 -5.2109 -0.4660
 -0.8066 37.0288 4.1903 7.5369 2.4837 -0.6990 -7.3906 -11.0234 -2.7318 10.6435 0.0000 0.0000 -12.1405 -15.3970 14.0590 9.0407 -0.0000 0.0000 -5.5681 10.0096 5.8507 7.2209 -0.0000 0.0000 -11.8401 15.4841 -18.6414 13.2728 -0.0000 -0.0000 -8.5365 6.1108 -0.1741 1.0469 -8.1880 -23.4721 -39.4913 -10.8007 16.1294 10.8427 -0.0000 -165.1062 0.3705 2.7610 -7.6465 32.8623 0.0000 -24.3270 -16.1312 0.5883 19.2137 -26.9006 7.0592 -16.7237 -5.6114 0.0000 35.5161 5.6233 13.9550 -22.2094 33.1476 -0.0000 26.2537 -1.1225 -5.2274 -0.4558
 -0.8059 37.0287 4.1910 7.5476 2.4781 -0.7004 -7.3985 -11.0247 -2.7310 10.6381 0.0000 0.0000 -12.1363 -15.3969 14.0690 9.0878 -0.0000 -0.0000 -5.5782 10.0267 5.8519 7.2211 -0.0000 -0.0000 -11.8446 15.4678 -18.6366 13.2565 -0.0000 -0.0000 -8.5429 6.1356 -0.1902 1.0649 -8.2070 -23.4674 -39.5382 -10.7830 16.1402 10.8458 -0.0000 -165.0874 0.3564 2.6499 -7.6636 32.8623 0.0000 -24.3270 -16.1359 0.5789 19.2261 -26.9368 7.0664 -16.7032 -5.6264 0.0000 35.5284 5.6138 13.9518 -22.1798 33.1476 -0.0000 26.2537 -1.1028 -5.2383 -0.4420
 -0.8058 37.0286 4.1910 7.5578 2.4797 -0.7037 -7.4022 -11.0282 -2.7268 10.6250 -0.0000 0.0000 -12.1293 -15.3937 14.0606 9.0942 0.0000 0.0000 -5.5967 10.0369 5.8565 7.2350 0.0000 0.0000 -11.8550 15.4634 -18.6414 13.2946 -0.0000 -0.0000 -8.5432 6.1475 -0.2041 1.0603 -8.2068 -23.4752 -39.5487 -10.7824 16.1556 10.8634 -0.0000 -165.1085 0.3603 2.6776 -7.6677 32.8623 0.0000 -24.3270 -16.1633 0.5787 19.2441 -26.9538 7.0784 -16.6977 -5.6748 0.0000 35.5350 5.6376 14.0120 -22.1806 33.1476 -0.0000 26.2537 -1.1009 -5.2517 -0.4389
 -0.8052 37.0282 4.1905 7.5717 2.4709 -0.7093 -7.4176 -11.0288 -2.7224 10.6265 0.0000 0.0000 -12.1263 -15.3963 14.0701 9.0560 0.0000 0.0000 -5.6098 10.0458 5.8603 7.2297 0.0000 0.0000 -11.8494 15.4564 -18.6385 13.2477 0.0000 -0.0000 -8.5571 6.1604 -0.2126 1.0633 -8.1915 -23.4638 -39.5656 -10.7611 16.1439 10.8584 -0.0000 -165.0873 0.3575 2.6288 -7.7467 32.8623 0.0000 -24.3270 -16.1420 0.5890 19.2572 -27.0070 7.0927 -16.6808 -5.7084 0.0000 35.5477 5.6339 14.0276 -22.1454 33.1476 -0.0000 26.2537 -1.0488 -5.2010 -0.4771
 -0.8044 37.0282 4.1906 7.5778 2.4669 -0.7110 -7.4224 -11.0306 -2.7215 10.6226 -0.0000 0.0000 -12.1325 -15.3871 14.0613 9.0793 -0.0000 -0.0000 -5.6185 10.0634 5.8618 7.2346 0.0000 0.0000 -11.8566 15.4396 -18.6253 13.2340 -0.0000 0.0000 -8.5581 6.1720 -0.2223 1.0623 -8.1817 -23.4585 -39.5766 -10.7455 16.1424 10.8768 -0.0000 -165.1283 0.3716 2.7563 -7.6814 32.8623 0.0000 -24.3270 -16.1650 0.5858 19.2577 -26.9891 7.0881 -16.6606 -5.7363 0.0000 35.5381 5.6371 14.0476 -22.1289 33.1476 -0.0000 26.2537 -1.0297 -5.2149 -0.4762
